<?xml version="1.0" encoding="utf-8"?>
<!-- Generator: Adobe Illustrator 23.0.5, SVG Export Plug-In . SVG Version: 6.00 Build 0)  -->
<svg version="1.1" id="Layer_1" xmlns="http://www.w3.org/2000/svg" xmlns:xlink="http://www.w3.org/1999/xlink" x="0px" y="0px"
	 viewBox="0 0 1000 1000" style="enable-background:new 0 0 1000 1000;" xml:space="preserve">
<style type="text/css">
	.st0{fill:#FFFFFF;}
	.st1{fill:#283256;}
</style>
<rect x="0" y="0" class="st0" width="1000" height="1000"/>
<rect class="st1" width="1000" height="1000"/>
<path class="st0" d="M412.58,518.88h-22.08l-5.23,10.45h-15.08l30.98-59.15h16.68l11.83,59.15h-15.25L412.58,518.88z M410.67,507.76
	l-3.83-21.65l-10.75,21.65H410.67z"/>
<path class="st0" d="M484.83,487.16c2.71,3.57,3.56,8.47,2.55,14.7l-4.45,27.47h-14.32l4.13-25.53c0.51-3.15,0.09-5.59-1.26-7.33
	c-1.35-1.74-3.4-2.61-6.15-2.61c-2.75,0-5.09,0.87-7,2.61c-1.91,1.74-3.12,4.19-3.63,7.33l-4.13,25.53h-14.41l7.61-47.02h14.41
	l-1.01,6.24c1.8-2.08,4.03-3.72,6.7-4.93c2.67-1.21,5.55-1.81,8.63-1.81C478.01,481.81,482.12,483.59,484.83,487.16z"/>
<path class="st0" d="M521.14,517.11l-1.98,12.22h-7.33c-5.22,0-9.09-1.28-11.6-3.83c-2.51-2.56-3.29-6.73-2.36-12.51l3.03-18.71
	h-5.73l1.94-11.96h5.73l1.85-11.46h14.41l-1.85,11.46h9.44l-1.94,11.96h-9.44l-3.05,18.87c-0.23,1.41-0.05,2.42,0.52,3.03
	c0.57,0.62,1.65,0.93,3.22,0.93H521.14z"/>
<path class="st0" d="M536.98,475.19c-1.36-1.49-1.86-3.33-1.51-5.52c0.36-2.25,1.47-4.11,3.31-5.6c1.84-1.49,4.03-2.23,6.55-2.23
	c2.47,0,4.39,0.75,5.75,2.23c1.36,1.49,1.86,3.36,1.49,5.6c-0.35,2.19-1.45,4.03-3.29,5.52c-1.84,1.49-4,2.23-6.47,2.23
	C540.28,477.43,538.34,476.68,536.98,475.19z M549.18,482.31l-7.61,47.02h-14.41l7.61-47.02H549.18z"/>
<path class="st0" d="M575.35,515.85l15.62-33.54h15.33l-24.29,47.02h-17.78l-9.07-47.02h15.42L575.35,515.85z"/>
<path class="st0" d="M614.58,475.19c-1.36-1.49-1.86-3.33-1.51-5.52c0.36-2.25,1.47-4.11,3.31-5.6c1.84-1.49,4.03-2.23,6.55-2.23
	c2.47,0,4.39,0.75,5.75,2.23c1.36,1.49,1.86,3.36,1.49,5.6c-0.35,2.19-1.45,4.03-3.29,5.52c-1.84,1.49-4,2.23-6.47,2.23
	C617.89,477.43,615.94,476.68,614.58,475.19z M626.78,482.31l-7.61,47.02h-14.41l7.61-47.02H626.78z"/>
<path class="st0" d="M657.68,484.04c2.77-1.49,5.7-2.23,8.79-2.23L664,497.06h-3.96c-3.59,0-6.42,0.77-8.46,2.32
	c-2.05,1.55-3.38,4.26-4.01,8.13l-3.53,21.82h-14.41l7.61-47.02h14.41l-1.27,7.84C652.48,487.57,654.91,485.53,657.68,484.04z"/>
<path class="st0" d="M719.72,482.31l-7.61,47.02H697.7l1.04-6.4c-1.8,2.08-4.05,3.75-6.75,5.01c-2.7,1.26-5.57,1.9-8.61,1.9
	c-3.6,0-6.64-0.8-9.13-2.4c-2.49-1.6-4.25-3.92-5.28-6.95c-1.03-3.03-1.21-6.6-0.54-10.7l4.45-27.47h14.32l-4.13,25.53
	c-0.51,3.15-0.09,5.59,1.26,7.33c1.35,1.74,3.4,2.61,6.15,2.61c2.81,0,5.17-0.87,7.08-2.61c1.91-1.74,3.12-4.18,3.63-7.33
	l4.13-25.53H719.72z"/>
<path class="st0" d="M730.88,527.9c-2.98-1.4-5.19-3.33-6.65-5.77c-1.46-2.44-2.05-5.18-1.79-8.21h14.24
	c-0.09,1.63,0.45,2.95,1.63,3.96c1.19,1.01,2.76,1.52,4.73,1.52c1.8,0,3.24-0.35,4.34-1.05c1.09-0.7,1.73-1.61,1.92-2.74
	c0.22-1.35-0.32-2.34-1.62-2.99c-1.3-0.65-3.46-1.36-6.48-2.15c-3.24-0.79-5.92-1.61-8.02-2.49c-2.11-0.87-3.82-2.25-5.15-4.13
	c-1.33-1.88-1.73-4.42-1.21-7.63c0.44-2.7,1.58-5.15,3.43-7.37c1.85-2.22,4.32-3.97,7.42-5.27c3.1-1.29,6.65-1.94,10.64-1.94
	c5.9,0,10.31,1.46,13.24,4.38c2.93,2.92,4.25,6.8,3.97,11.63h-13.31c0.04-1.63-0.47-2.92-1.52-3.88c-1.05-0.95-2.56-1.43-4.53-1.43
	c-1.68,0-3.03,0.32-4.03,0.97c-1,0.65-1.6,1.53-1.78,2.65c-0.22,1.35,0.33,2.36,1.66,3.03c1.32,0.67,3.45,1.35,6.37,2.02
	c3.34,0.9,6.03,1.78,8.08,2.65c2.05,0.87,3.75,2.27,5.09,4.21c1.34,1.94,1.78,4.54,1.31,7.79c-0.45,2.75-1.62,5.21-3.51,7.37
	c-1.9,2.16-4.39,3.86-7.48,5.1c-3.09,1.24-6.55,1.85-10.37,1.85C737.39,530,733.85,529.3,730.88,527.9z"/>
<g>
	<polygon class="st0" points="315.54,470.18 313.2,470.18 311.65,479.76 	"/>
	<path class="st0" d="M354.35,479.36c-1.17-2.86-3.25-5.11-6.24-6.74c-3-1.63-6.85-2.44-11.57-2.44h-11.45l-19.97,49.93l-1.49,9.22
		h14.41l3.44-21.23h8.93c4.83,0,9.02-0.87,12.56-2.61c3.54-1.74,6.32-4.03,8.36-6.87c2.03-2.84,3.33-5.97,3.88-9.39
		C355.8,485.52,355.52,482.23,354.35,479.36z M340.54,489.22c-0.38,2.36-1.35,4.19-2.91,5.48c-1.56,1.29-3.71,1.94-6.46,1.94h-7.84
		l2.4-14.83h7.84c2.75,0,4.7,0.65,5.84,1.94C340.54,485.04,340.92,486.86,340.54,489.22z"/>
</g>
<path class="st0" d="M318.96,470.18l-24.99,59.15h-17.44l-3.14-38.93l-16.07,38.93h-17.44l-5.43-59.15h15.42l1.54,43.06l17.5-43.06
	h15.84l3.14,43.06l15.56-43.06H318.96z"/>
<g>
	<path class="st1" d="M-690.79,518.63h-22.08l-5.23,10.45h-15.08l30.98-59.15h16.68l11.83,59.15h-15.25L-690.79,518.63z
		 M-692.7,507.51l-3.83-21.65l-10.75,21.65H-692.7z"/>
	<path class="st1" d="M-618.54,486.91c2.71,3.57,3.56,8.47,2.55,14.7l-4.45,27.47h-14.32l4.13-25.53c0.51-3.15,0.09-5.59-1.26-7.33
		c-1.35-1.74-3.4-2.61-6.15-2.61c-2.75,0-5.09,0.87-7,2.61c-1.91,1.74-3.12,4.19-3.63,7.33l-4.13,25.53h-14.41l7.61-47.02h14.41
		l-1.01,6.24c1.8-2.08,4.03-3.72,6.7-4.93c2.67-1.21,5.55-1.81,8.63-1.81C-625.36,481.56-621.25,483.34-618.54,486.91z"/>
	<path class="st1" d="M-582.23,516.86l-1.98,12.22h-7.33c-5.22,0-9.09-1.28-11.6-3.83c-2.51-2.56-3.29-6.73-2.36-12.51l3.03-18.71
		h-5.73l1.94-11.96h5.73l1.85-11.46h14.41l-1.85,11.46h9.44l-1.94,11.96h-9.44l-3.05,18.87c-0.23,1.41-0.05,2.42,0.52,3.03
		c0.57,0.62,1.65,0.93,3.22,0.93H-582.23z"/>
	<path class="st1" d="M-566.39,474.94c-1.36-1.49-1.86-3.33-1.51-5.52c0.36-2.25,1.47-4.11,3.31-5.6c1.84-1.49,4.03-2.23,6.55-2.23
		c2.47,0,4.39,0.75,5.75,2.23c1.36,1.49,1.86,3.36,1.49,5.6c-0.35,2.19-1.45,4.03-3.29,5.52c-1.84,1.49-4,2.23-6.47,2.23
		C-563.08,477.18-565.03,476.43-566.39,474.94z M-554.19,482.06l-7.61,47.02h-14.41l7.61-47.02H-554.19z"/>
	<path class="st1" d="M-528.02,515.6l15.62-33.54h15.33l-24.29,47.02h-17.78l-9.07-47.02h15.42L-528.02,515.6z"/>
	<path class="st1" d="M-488.79,474.94c-1.36-1.49-1.86-3.33-1.51-5.52c0.36-2.25,1.47-4.11,3.31-5.6c1.84-1.49,4.03-2.23,6.55-2.23
		c2.47,0,4.39,0.75,5.75,2.23c1.36,1.49,1.86,3.36,1.49,5.6c-0.35,2.19-1.45,4.03-3.29,5.52c-1.84,1.49-4,2.23-6.47,2.23
		C-485.48,477.18-487.43,476.43-488.79,474.94z M-476.58,482.06l-7.61,47.02h-14.41l7.61-47.02H-476.58z"/>
	<path class="st1" d="M-445.69,483.79c2.77-1.49,5.7-2.23,8.79-2.23l-2.47,15.25h-3.96c-3.59,0-6.42,0.77-8.46,2.32
		c-2.05,1.55-3.38,4.26-4.01,8.13l-3.53,21.82h-14.41l7.61-47.02h14.41l-1.27,7.84C-450.89,487.32-448.46,485.28-445.69,483.79z"/>
	<path class="st1" d="M-383.65,482.06l-7.61,47.02h-14.41l1.04-6.4c-1.8,2.08-4.05,3.75-6.75,5.01c-2.7,1.26-5.57,1.9-8.61,1.9
		c-3.6,0-6.64-0.8-9.13-2.4c-2.49-1.6-4.25-3.92-5.28-6.95c-1.03-3.03-1.21-6.6-0.54-10.7l4.45-27.47h14.32l-4.13,25.53
		c-0.51,3.15-0.09,5.59,1.26,7.33c1.35,1.74,3.4,2.61,6.15,2.61c2.81,0,5.17-0.87,7.08-2.61c1.91-1.74,3.12-4.18,3.63-7.33
		l4.13-25.53H-383.65z"/>
	<path class="st1" d="M-372.49,527.65c-2.98-1.4-5.19-3.33-6.65-5.77c-1.46-2.44-2.05-5.18-1.79-8.21h14.24
		c-0.09,1.63,0.45,2.95,1.63,3.96c1.19,1.01,2.76,1.52,4.73,1.52c1.8,0,3.24-0.35,4.34-1.05c1.09-0.7,1.73-1.61,1.92-2.74
		c0.22-1.35-0.32-2.34-1.62-2.99c-1.3-0.65-3.46-1.36-6.48-2.15c-3.24-0.79-5.92-1.61-8.02-2.49c-2.11-0.87-3.82-2.25-5.15-4.13
		c-1.33-1.88-1.73-4.42-1.21-7.63c0.44-2.7,1.58-5.15,3.43-7.37c1.85-2.22,4.32-3.97,7.42-5.27c3.1-1.29,6.65-1.94,10.64-1.94
		c5.9,0,10.31,1.46,13.24,4.38c2.93,2.92,4.25,6.8,3.97,11.63h-13.31c0.04-1.63-0.47-2.92-1.52-3.88c-1.05-0.95-2.56-1.43-4.53-1.43
		c-1.68,0-3.03,0.32-4.03,0.97c-1,0.65-1.6,1.53-1.78,2.65c-0.22,1.35,0.33,2.36,1.66,3.03c1.32,0.67,3.45,1.35,6.37,2.02
		c3.34,0.9,6.03,1.78,8.08,2.65c2.05,0.87,3.75,2.27,5.09,4.21c1.34,1.94,1.78,4.54,1.31,7.79c-0.45,2.75-1.62,5.21-3.51,7.37
		c-1.9,2.16-4.39,3.86-7.48,5.1c-3.09,1.24-6.55,1.85-10.37,1.85C-365.98,529.75-369.51,529.05-372.49,527.65z"/>
	<g>
		<polygon class="st1" points="-787.83,469.93 -790.17,469.93 -791.72,479.51 		"/>
		<path class="st1" d="M-749.02,479.11c-1.17-2.86-3.25-5.11-6.24-6.74c-3-1.63-6.85-2.44-11.57-2.44h-11.45l-19.97,49.93
			l-1.49,9.22h14.41l3.44-21.23h8.93c4.83,0,9.02-0.87,12.56-2.61c3.54-1.74,6.33-4.03,8.36-6.87c2.03-2.84,3.33-5.97,3.88-9.39
			C-747.57,485.27-747.85,481.98-749.02,479.11z M-762.83,488.97c-0.38,2.36-1.35,4.19-2.91,5.48c-1.56,1.29-3.71,1.94-6.46,1.94
			h-7.84l2.4-14.83h7.84c2.75,0,4.7,0.65,5.84,1.94C-762.83,484.79-762.45,486.61-762.83,488.97z"/>
	</g>
	<path class="st1" d="M-784.41,469.93l-24.99,59.15h-17.44l-3.14-38.93l-16.07,38.93h-17.44l-5.43-59.15h15.42l1.54,43.06
		l17.5-43.06h15.84l3.14,43.06l15.56-43.06H-784.41z"/>
</g>
</svg>
